<svg xmlns="http://www.w3.org/2000/svg" viewBox="0 0 400 300" width="400" height="300" role="img" aria-label="Connect 4">
<defs><radialGradient id="bg" cx="50%" cy="45%" r="75%"><stop offset="0" stop-color="#1b1b3a"/><stop offset="1" stop-color="#0e0e1c"/></radialGradient><filter id="glow" x="-30%" y="-30%" width="160%" height="160%"><feGaussianBlur stdDeviation="9" result="b"/><feMerge><feMergeNode in="b"/><feMergeNode in="SourceGraphic"/></feMerge></filter></defs><rect width="400" height="300" fill="url(#bg)"/>
<rect x="52" y="22" width="296" height="256" rx="16" fill="#0d1f40"/><circle cx="80" cy="50" r="16" fill="#080818"/><circle cx="120" cy="50" r="16" fill="#080818"/><circle cx="160" cy="50" r="16" fill="#080818"/><circle cx="200" cy="50" r="16" fill="#080818"/><circle cx="240" cy="50" r="16" fill="#080818"/><circle cx="280" cy="50" r="16" fill="#080818"/><circle cx="320" cy="50" r="16" fill="#080818"/><circle cx="80" cy="90" r="16" fill="#080818"/><circle cx="120" cy="90" r="16" fill="#080818"/><circle cx="160" cy="90" r="16" fill="#080818"/><circle cx="200" cy="90" r="16" fill="#080818"/><circle cx="240" cy="90" r="16" fill="#080818"/><circle cx="280" cy="90" r="16" fill="#080818"/><circle cx="320" cy="90" r="16" fill="#080818"/><circle cx="80" cy="130" r="16" fill="#080818"/><circle cx="120" cy="130" r="16" fill="#080818"/><circle cx="160" cy="130" r="16" fill="#080818"/><circle cx="200" cy="130" r="16" fill="#4488ff" filter="url(#glow)"/><circle cx="200" cy="130" r="16" fill="none" stroke="#fff" stroke-width="3" opacity=".85"/><circle cx="240" cy="130" r="16" fill="#080818"/><circle cx="280" cy="130" r="16" fill="#080818"/><circle cx="320" cy="130" r="16" fill="#080818"/><circle cx="80" cy="170" r="16" fill="#080818"/><circle cx="120" cy="170" r="16" fill="#080818"/><circle cx="160" cy="170" r="16" fill="#4488ff" filter="url(#glow)"/><circle cx="160" cy="170" r="16" fill="none" stroke="#fff" stroke-width="3" opacity=".85"/><circle cx="200" cy="170" r="16" fill="#ff6633"/><circle cx="240" cy="170" r="16" fill="#ff6633"/><circle cx="280" cy="170" r="16" fill="#080818"/><circle cx="320" cy="170" r="16" fill="#080818"/><circle cx="80" cy="210" r="16" fill="#080818"/><circle cx="120" cy="210" r="16" fill="#4488ff" filter="url(#glow)"/><circle cx="120" cy="210" r="16" fill="none" stroke="#fff" stroke-width="3" opacity=".85"/><circle cx="160" cy="210" r="16" fill="#4488ff"/><circle cx="200" cy="210" r="16" fill="#4488ff"/><circle cx="240" cy="210" r="16" fill="#4488ff"/><circle cx="280" cy="210" r="16" fill="#ff6633"/><circle cx="320" cy="210" r="16" fill="#080818"/><circle cx="80" cy="250" r="16" fill="#4488ff" filter="url(#glow)"/><circle cx="80" cy="250" r="16" fill="none" stroke="#fff" stroke-width="3" opacity=".85"/><circle cx="120" cy="250" r="16" fill="#ff6633"/><circle cx="160" cy="250" r="16" fill="#ff6633"/><circle cx="200" cy="250" r="16" fill="#ff6633"/><circle cx="240" cy="250" r="16" fill="#4488ff"/><circle cx="280" cy="250" r="16" fill="#4488ff"/><circle cx="320" cy="250" r="16" fill="#ff6633"/>
</svg>
