<svg xmlns="http://www.w3.org/2000/svg" viewBox="0 0 400 300" width="400" height="300" role="img" aria-label="Tic-Tac-Toe">
<defs><radialGradient id="bg" cx="50%" cy="45%" r="75%"><stop offset="0" stop-color="#1b1b3a"/><stop offset="1" stop-color="#0e0e1c"/></radialGradient></defs><rect width="400" height="300" fill="url(#bg)"/>
<rect x="76" y="26" width="76" height="76" rx="12" fill="#14213e" stroke="#4488ff" stroke-width="5"/><path d="M94.0,44.0 L134.0,84.0 M134.0,44.0 L94.0,84.0" stroke="#4488ff" stroke-width="12" stroke-linecap="round" fill="none"/><rect x="162" y="26" width="76" height="76" rx="12" fill="#14142a" stroke="#4a4a90" stroke-width="5"/><rect x="248" y="26" width="76" height="76" rx="12" fill="#14142a" stroke="#4a4a90" stroke-width="5"/><circle cx="286.0" cy="64.0" r="21" stroke="#ff6633" stroke-width="12" fill="none"/><rect x="76" y="112" width="76" height="76" rx="12" fill="#14142a" stroke="#4a4a90" stroke-width="5"/><circle cx="114.0" cy="150.0" r="21" stroke="#ff6633" stroke-width="12" fill="none"/><rect x="162" y="112" width="76" height="76" rx="12" fill="#14213e" stroke="#4488ff" stroke-width="5"/><path d="M180.0,130.0 L220.0,170.0 M220.0,130.0 L180.0,170.0" stroke="#4488ff" stroke-width="12" stroke-linecap="round" fill="none"/><rect x="248" y="112" width="76" height="76" rx="12" fill="#14142a" stroke="#4a4a90" stroke-width="5"/><rect x="76" y="198" width="76" height="76" rx="12" fill="#14142a" stroke="#4a4a90" stroke-width="5"/><circle cx="114.0" cy="236.0" r="21" stroke="#ff6633" stroke-width="12" fill="none"/><rect x="162" y="198" width="76" height="76" rx="12" fill="#14142a" stroke="#4a4a90" stroke-width="5"/><rect x="248" y="198" width="76" height="76" rx="12" fill="#14213e" stroke="#4488ff" stroke-width="5"/><path d="M266.0,216.0 L306.0,256.0 M306.0,216.0 L266.0,256.0" stroke="#4488ff" stroke-width="12" stroke-linecap="round" fill="none"/>
</svg>
